<svg width="225" height="50" viewBox="0 0 225 50" fill="none" xmlns="http://www.w3.org/2000/svg">
<g clip-path="url(#clip0_16_3)">
<path d="M43.5454 13.0736L42.7073 12.5937L21.6265 0.369629L0.323242 12.7221V37.3155L0.618133 37.4815L21.6355 49.6123L42.0256 37.8421L43.2414 37.1405V23.4393L42.0256 24.1409L32.2956 29.7575V19.5578L43.5363 13.0723H43.5454V13.0736ZM22.2706 14.4404L31.0798 19.5591V29.7679L22.2706 24.6583V14.4404ZM20.9901 2.1528V13.0359L11.573 18.5048L2.1482 13.0736L20.9901 2.1528ZM20.9901 14.4404V24.6583L12.1809 29.7679V19.5591L20.9901 14.4404ZM1.53902 14.1266L10.9652 19.5591V30.4695L1.53902 35.9383V14.1266ZM2.17536 36.9836L11.573 31.5238L21.0082 36.9745L21.0264 47.8576L2.17536 36.9823V36.9836ZM21.6265 35.9124H21.6174L12.7811 30.8222L21.5903 25.7126L21.6265 25.7308L21.664 25.7126L30.4719 30.8222L29.4579 31.4045L21.6355 35.9227H21.6265V35.9137V35.9124ZM32.9047 30.8222L42.0269 25.5466V36.4298L41.0867 36.9745L22.2344 47.8486L22.2525 36.9654L32.9034 30.8119V30.8209L32.9047 30.8222ZM31.689 18.5074L22.2719 13.0385V2.1528L41.1138 13.0736L31.6877 18.5061L31.689 18.5074Z" fill="#082233"/>
<path d="M21.6253 49.9909L0 37.5088V12.5366L21.6253 0L44.1805 13.0722L32.6164 19.7523V29.2128L43.5623 22.8933V37.3428L21.624 50V49.9909H21.6253ZM0.645396 37.1301L0.774734 37.204L21.6356 49.2426L42.9298 36.955V24.0021L31.984 30.3216V19.3736L42.9027 13.0722L21.6253 0.748282L0.645396 12.9153V37.1301ZM21.3498 48.4191L1.53007 36.9822L11.5732 31.1529L21.3304 36.789L21.3485 48.4204L21.3498 48.4191ZM2.81956 36.9822L20.7044 47.3026L20.6863 37.1677L11.5732 31.9116L2.81956 36.9926V36.9835V36.9822ZM21.9111 48.4204L21.9292 36.789L42.3478 24.9916V36.623L41.242 37.2598L21.9111 48.4204ZM22.5746 37.1586L22.5565 47.2935L41.7037 36.2443V26.1004L22.5759 37.1495V37.1586H22.5746ZM1.21707 36.5024V13.5715L11.2873 19.3827V30.6627L1.21578 36.5115V36.5024H1.21707ZM1.86117 14.6894V35.3845L10.6419 30.2853V19.7536L1.86117 14.6894ZM21.6162 36.2897L12.1345 30.8209L21.5878 25.343L31.1148 30.8209L21.6434 36.2897H21.6162ZM13.4343 30.8209L21.6343 35.5518L29.8344 30.8209L21.6253 26.0718L13.4343 30.8209ZM31.4019 30.332L21.9486 24.8528V13.8854L31.4019 19.3736V30.3307V30.332ZM22.5927 24.4741L30.7565 29.2037V19.7432L22.5927 15.0032V24.4728V24.4741ZM11.859 30.332V19.3749L21.3123 13.8867V24.8528L11.859 30.332ZM12.5044 19.7445V29.205L20.6682 24.4754V15.0032L12.5044 19.7432V19.7445ZM31.6878 18.886L21.9486 13.2317V1.58864L41.7593 13.0722L31.6878 18.8834V18.886ZM22.594 12.8531L31.6878 18.1377L40.4685 13.0748L22.5927 2.7156V12.8505L22.594 12.8531ZM11.5744 18.886L1.50161 13.0722L21.3123 1.58864V13.2201L11.5732 18.8743V18.8834L11.5744 18.886ZM2.7924 13.0722L11.5732 18.1351L20.6669 12.8505V2.7156L2.7924 13.0722Z" fill="#082233"/>
<path d="M163.379 15.5648H167.195L175.26 34.5727H170.935L169.211 30.3398H161.251L159.527 34.5727H155.305L163.37 15.5648H163.379ZM167.733 26.6749L165.235 20.5524L162.739 26.6749H167.733Z" fill="#082233"/>
<path d="M178.71 15.7061H187.312C189.705 15.7061 191.561 16.3766 192.795 17.6242C193.841 18.6733 194.406 20.1556 194.406 21.9414V21.9984C194.406 25.0408 192.768 26.9589 190.374 27.8459L194.972 34.5817H190.129L186.096 28.5449H182.846V34.5817H178.71V15.7061ZM187.038 24.8696C189.054 24.8696 190.213 23.7933 190.213 22.2059V22.1489C190.213 20.3722 188.979 19.4566 186.963 19.4566H182.846V24.88H187.038V24.8709V24.8696Z" fill="#082233"/>
<path d="M199.497 15.7061H203.633V23.9541L211.266 15.7061H216.268L208.608 23.7077L216.616 34.5727H211.642L205.81 26.5426L203.633 28.8095V34.5817H199.497V15.7061Z" fill="#082233"/>
<path d="M222.843 17.1054C222.843 17.3609 222.663 17.5399 222.324 17.5399H221.655V16.6516H222.305C222.634 16.6516 222.832 16.8033 222.832 17.0951M223.52 17.0665C223.52 16.4337 223.059 16.0654 222.343 16.0654H221.005V19.0883H221.673V18.1157H222.201L222.843 19.0883H223.615L222.88 18.0016C223.267 17.8602 223.531 17.5581 223.531 17.0562M224.67 17.6514C224.67 19.0494 223.586 20.1829 222.164 20.1829C220.741 20.1829 219.667 19.0585 219.667 17.6605C219.667 16.2625 220.741 15.1291 222.173 15.1291C223.605 15.1291 224.67 16.2534 224.67 17.6423M225 17.6514C225 16.1017 223.766 14.8178 222.173 14.8178C220.579 14.8178 219.338 16.1121 219.338 17.6618C219.338 19.2115 220.572 20.4954 222.164 20.4954C223.756 20.4954 225 19.2012 225 17.6514Z" fill="#082233"/>
<path d="M67.9915 34.5636C62.5412 34.5636 58.427 30.3942 58.427 24.8658C58.427 19.3373 62.5969 15.0551 68.1312 15.0551C71.7773 15.0551 73.8066 16.4142 75.2836 17.7824L73.5259 19.8068C71.7501 18.2324 70.0661 17.5295 68.0937 17.5295C64.233 17.5295 61.3242 20.6406 61.3242 24.7633C61.3242 28.886 64.2976 32.11 68.0937 32.11C70.4968 32.11 72.076 31.1542 73.6759 29.7017L75.4052 31.4628C73.1987 33.674 71.0387 34.5831 67.9721 34.5831L67.9902 34.5649L67.9915 34.5636Z" fill="#082233"/>
<path d="M84.9841 34.5831V27.099L77.4036 15.5557H80.6849L86.421 24.5909L92.2231 15.5557H95.3815L87.8295 26.9278L87.801 34.5818H84.9853L84.9841 34.5831Z" fill="#082233"/>
<path d="M98.8853 34.5831V15.5557H107.515C109.686 15.5557 111.406 16.1237 112.502 17.2014C113.337 18.0249 113.741 19.0183 113.741 20.2296C113.741 22.1217 112.895 23.447 111.07 24.3743L110.339 24.7439L111.118 24.9994C113.702 25.8696 114.856 27.2416 114.856 29.4657C114.856 32.6728 112.214 34.5844 107.793 34.5844H98.8853V34.5831ZM101.643 32.2086H107.832C110.513 32.2086 112.04 31.101 112.04 29.1623C112.04 27.2235 110.455 26.116 107.572 26.116H101.643V32.2099V32.2086ZM101.643 23.8633H106.803C109.426 23.8633 110.925 22.7662 110.925 20.8456C110.925 19.0287 109.474 17.9406 107.053 17.9406H101.643V23.8633Z" fill="#082233"/>
<path d="M118.85 34.5831V15.5557H132.198V17.9679H121.506V23.7777H130.982V26.1899H121.506V32.1787H132.333V34.5818H118.85V34.5831Z" fill="#082233"/>
<path d="M149.723 34.5831L145.104 27.7137H140.469V34.5831H137.826V15.5557H145.871C148.072 15.5557 149.866 16.199 151.066 17.4297C152.022 18.4607 152.528 19.8418 152.528 21.4408C152.528 24.2978 151.021 26.3131 148.279 27.1366L147.828 27.2689L152.807 34.5831H149.723ZM140.469 25.3301H145.628C148.18 25.3301 149.822 23.9009 149.822 21.6872C149.822 19.3594 148.279 18.0158 145.601 18.0158H140.469V25.3301Z" fill="#082233"/>
</g>
<defs>
<clipPath id="clip0_16_3">
<rect width="225" height="50" fill="white"/>
</clipPath>
</defs>
</svg>
