<svg xmlns="http://www.w3.org/2000/svg" viewBox="0 0 220 31">
  <path d="M142.5 9.613h3.887V13.5h1.225V9.613h3.888V8.387h-3.888V4.5h-1.225v3.887H142.5v1.226M60 15.5c0-8.281-6.726-15-15.017-15H27.337v12.34H15.005v5.32h12.332v7.02h-12.32c-5.35 0-9.692-4.336-9.692-9.68s4.342-9.68 9.692-9.68h6.162V.5h-6.162C6.727.5 0 7.219 0 15.5c0 8.18 6.759 15 15.017 15h29.966C53.24 30.5 60 23.73 60 15.5m-15.017 9.68h-12.32v-7.02h12.335v-5.32H32.663V5.82h12.32c5.35 0 9.69 4.336 9.69 9.68 0 5.344-4.34 9.68-9.69 9.68m170.579-14.579c0 1.77.982 2.899 2.76 2.899.678 0 1.203-.069 1.678-.208l-.068-1.84c-.238.156-.626.243-1.033.243-.864 0-1.068-.712-1.068-1.475V6.054h2.016v-1.7h-2.016V1.818l-2.269.746v1.788h-1.677v1.7h1.677V10.6zm-10.96 2.691h2.27V8.918c0-1.146.355-2.968 2-2.968 1.456 0 1.472 1.475 1.472 2.569v4.773h2.27V7.651c0-2.014-.898-3.507-2.964-3.507-1.186 0-2.152.4-2.863 1.424h-.033V4.353h-2.152v8.94zm-2.389-2.395c-.846.485-1.795.902-2.896.902-1.407 0-2.388-.816-2.49-2.256h6.03c0-3.124-.914-5.399-4.15-5.399-2.71 0-4.048 2.135-4.048 4.722 0 2.933 1.677 4.634 4.557 4.634 1.22 0 2.167-.243 2.997-.712v-1.891zm-5.385-2.951c.1-1.198.743-2.1 2.014-2.1s1.778.971 1.847 2.1h-3.861zm-6.167-5.224h2.27V.5h-2.27v2.222zm0 10.57h2.27V4.353h-2.27v8.94zm-6.522 0h2.27v-3.28c0-1.285 0-3.646 1.846-3.646.407 0 .813.07 1.016.192V4.214c-.236-.07-.473-.07-.694-.07-1.355 0-2.287 1.406-2.388 2.24h-.034v-2.03h-2.016v8.938zm-7.13 0h2.557l3.218-8.939h-2.27l-2.1 6.509h-.034l-2.169-6.509h-2.44l3.237 8.94zm-4.558-2.395c-.847.485-1.795.902-2.896.902-1.407 0-2.39-.816-2.49-2.256h6.03c0-3.124-.914-5.399-4.15-5.399-2.712 0-4.048 2.135-4.048 4.722 0 2.933 1.675 4.634 4.555 4.634 1.22 0 2.169-.243 2.999-.712v-1.891zm-5.387-2.951c.1-1.198.746-2.1 2.016-2.1s1.779.971 1.847 2.1h-3.863zm-11.197-4.86h1.322c1.981 0 3.896 1.51 3.896 4.149 0 2.638-1.915 4.147-3.896 4.147h-1.322V3.086zm-2.372 10.206h3.235c3.626 0 6.828-1.25 6.828-6.057 0-4.809-3.202-6.058-6.828-6.058h-3.235v12.115zm-13.805-2.395c-.847.485-1.796.902-2.897.902-1.406 0-2.387-.816-2.489-2.256h6.03c0-3.124-.915-5.399-4.15-5.399-2.71 0-4.049 2.135-4.049 4.722 0 2.933 1.677 4.634 4.558 4.634 1.218 0 2.166-.243 2.997-.712v-1.891zm-5.386-2.951c.102-1.198.744-2.1 2.015-2.1s1.778.971 1.846 2.1h-3.86zm-10.3 5.346h2.27v-4.34h.033l2.915 4.34h2.88l-3.66-4.947 3.253-3.992h-2.677l-2.71 3.576h-.033V.505h-2.27v12.787zm-1.61-8.852c-.625-.19-1.286-.296-2.201-.296-2.727 0-4.219 2.05-4.219 4.635 0 2.725 1.44 4.721 4.303 4.721.932 0 1.61-.087 2.27-.295l-.1-1.927c-.39.174-1.102.417-1.746.417-1.593 0-2.355-1.267-2.355-2.916 0-1.683.898-2.83 2.305-2.83.694 0 1.135.14 1.541.33l.203-1.84zm-8.316 6.457c-.847.485-1.795.902-2.896.902-1.406 0-2.389-.816-2.49-2.256h6.03c0-3.124-.915-5.399-4.15-5.399-2.711 0-4.05 2.135-4.05 4.722 0 2.933 1.678 4.634 4.557 4.634 1.22 0 2.17-.243 2.999-.712v-1.891zm-5.387-2.951c.102-1.198.746-2.1 2.016-2.1s1.779.971 1.847 2.1h-3.863zm-3.726-3.471c-.712-.157-1.406-.33-2.473-.33-1.779 0-3.422.85-3.422 2.777 0 3.228 3.947 2.03 3.947 3.783 0 .869-.915 1.094-1.491 1.094-.78 0-1.524-.225-2.236-.59l-.136 1.91c.83.225 1.711.381 2.575.381 1.847 0 3.66-.833 3.66-2.916 0-3.228-3.948-2.326-3.948-3.749 0-.764.729-.99 1.339-.99.83 0 1.338.14 2.033.382l.152-1.752zm-7.759 6.422c-.847.485-1.795.902-2.896.902-1.406 0-2.388-.816-2.49-2.256h6.03c0-3.124-.915-5.399-4.15-5.399-2.71 0-4.049 2.135-4.049 4.722 0 2.933 1.677 4.634 4.558 4.634 1.219 0 2.167-.243 2.997-.712v-1.891zM91.82 7.946c.102-1.198.745-2.1 2.016-2.1s1.778.971 1.846 2.1H91.82zm-6.166-5.224h2.27V.5h-2.27v2.222zm0 10.57h2.27V4.353h-2.27v8.94zm-2.693-11.82c-1.017-.313-2.101-.504-3.473-.504C75.473.968 73 3.294 73 7.442c0 4.097 2.66 6.058 6.488 6.058 1.27 0 2.575-.278 3.828-.625V6.349H78.54v1.91h2.507v3.158a6.286 6.286 0 0 1-1.56.174c-2.523 0-4.014-1.857-4.014-4.322 0-2.482 1.525-4.392 4.286-4.392.949 0 2.135.209 3.049.643l.153-2.048z"/>
</svg>
