<?xml version="1.0" encoding="us-ascii" standalone="no"?><svg xmlns="http://www.w3.org/2000/svg" xmlns:xlink="http://www.w3.org/1999/xlink" contentStyleType="text/css" height="407.2917px" preserveAspectRatio="none" style="width:877px;height:407px;" version="1.1" viewBox="0 0 877 407" width="877.0833px" zoomAndPan="magnify"><defs/><g><!--class Device--><g id="elem_Device"><rect codeLine="27" fill="#F5F5F5" height="105.7292" id="Device" rx="5.2083" ry="5.2083" style="stroke:#000000;stroke-width:2.0833333333333335;" width="157.2917" x="245.8333" y="17.7083"/><ellipse cx="293.75" cy="36.9271" fill="none" rx="10.4167" ry="10.4167" style="stroke:#2683B9;stroke-width:1.0416666666666667;"/><path d="M295.6604,41.3521 Q295.2332,41.5719 294.7632,41.6817 Q294.2932,41.7916 293.7744,41.7916 Q291.9312,41.7916 290.9607,40.577 Q289.9902,39.3624 289.9902,37.0675 Q289.9902,34.7664 290.9607,33.5518 Q291.9312,32.3372 293.7744,32.3372 Q294.2932,32.3372 294.7693,32.4471 Q295.2454,32.557 295.6604,32.7767 L295.6604,34.7786 Q295.1965,34.3514 294.7601,34.153 Q294.3237,33.9547 293.8599,33.9547 Q292.8711,33.9547 292.3676,34.739 Q291.864,35.5233 291.864,37.0675 Q291.864,38.6055 292.3676,39.3899 Q292.8711,40.1742 293.8599,40.1742 Q294.3237,40.1742 294.7601,39.9758 Q295.1965,39.7774 295.6604,39.3502 Z " fill="#2FA4E7"/><text fill="#343A40" font-family="IBM Plex Sans" font-size="13.5417" font-weight="bold" lengthAdjust="spacing" textLength="42.7083" x="318.75" y="42.0052">Device</text><line style="stroke:#000000;stroke-width:2.0833333333333335;" x1="246.875" x2="402.0833" y1="56.1458" y2="56.1458"/><ellipse cx="257.2917" cy="74.5312" fill="none" rx="3.125" ry="3.125" style="stroke:#2683B9;stroke-width:1.0416666666666667;"/><text fill="#343A40" font-family="IBM Plex Sans" font-size="11.4583" lengthAdjust="spacing" textLength="118.75" x="270.8333" y="77.2656">mac_address: str &#171;PK&#187;</text><ellipse cx="257.2917" cy="99.8437" fill="none" rx="3.125" ry="3.125" style="stroke:#2683B9;stroke-width:1.0416666666666667;"/><text fill="#343A40" font-family="IBM Plex Sans" font-size="11.4583" lengthAdjust="spacing" textLength="120.8333" x="270.8333" y="102.5781">username: str &#171;unique&#187;</text><line style="stroke:#000000;stroke-width:2.0833333333333335;" x1="246.875" x2="402.0833" y1="115.1042" y2="115.1042"/></g><!--class Authentication--><g id="elem_Authentication"><rect codeLine="32" fill="#F5F5F5" height="181.6667" id="Authentication" rx="5.2083" ry="5.2083" style="stroke:#000000;stroke-width:2.0833333333333335;" width="184.375" x="448.9583" y="214.0625"/><ellipse cx="484.6354" cy="233.2812" fill="none" rx="10.4167" ry="10.4167" style="stroke:#2683B9;stroke-width:1.0416666666666667;"/><path d="M486.5458,237.7063 Q486.1186,237.926 485.6486,238.0359 Q485.1786,238.1458 484.6598,238.1458 Q482.8166,238.1458 481.8461,236.9312 Q480.8757,235.7166 480.8757,233.4216 Q480.8757,231.1206 481.8461,229.906 Q482.8166,228.6914 484.6598,228.6914 Q485.1786,228.6914 485.6547,228.8013 Q486.1308,228.9111 486.5458,229.1309 L486.5458,231.1328 Q486.0819,230.7056 485.6455,230.5072 Q485.2091,230.3088 484.7453,230.3088 Q483.7565,230.3088 483.253,231.0931 Q482.7494,231.8774 482.7494,233.4216 Q482.7494,234.9597 483.253,235.744 Q483.7565,236.5283 484.7453,236.5283 Q485.2091,236.5283 485.6455,236.33 Q486.0819,236.1316 486.5458,235.7043 Z " fill="#2FA4E7"/><text fill="#343A40" font-family="IBM Plex Sans" font-size="13.5417" font-weight="bold" lengthAdjust="spacing" textLength="95.8333" x="508.0729" y="238.3594">Authentication</text><line style="stroke:#000000;stroke-width:2.0833333333333335;" x1="450" x2="632.2917" y1="252.5" y2="252.5"/><ellipse cx="460.4167" cy="270.8854" fill="none" rx="3.125" ry="3.125" style="stroke:#2683B9;stroke-width:1.0416666666666667;"/><text fill="#343A40" font-family="IBM Plex Sans" font-size="11.4583" lengthAdjust="spacing" textLength="147.9167" x="473.9583" y="273.6198">mac_address: str &#171;PK&#187; &#171;FK&#187;</text><ellipse cx="460.4167" cy="296.1979" fill="none" rx="3.125" ry="3.125" style="stroke:#2683B9;stroke-width:1.0416666666666667;"/><text fill="#343A40" font-family="IBM Plex Sans" font-size="11.4583" lengthAdjust="spacing" textLength="67.7083" x="473.9583" y="298.9323">password: str</text><ellipse cx="460.4167" cy="321.5104" fill="none" rx="3.125" ry="3.125" style="stroke:#2683B9;stroke-width:1.0416666666666667;"/><text fill="#343A40" font-family="IBM Plex Sans" font-size="11.4583" lengthAdjust="spacing" textLength="51.0417" x="473.9583" y="324.2448">nonce: str</text><ellipse cx="460.4167" cy="346.8229" fill="none" rx="3.125" ry="3.125" style="stroke:#2683B9;stroke-width:1.0416666666666667;"/><text fill="#343A40" font-family="IBM Plex Sans" font-size="11.4583" lengthAdjust="spacing" textLength="52.0833" x="473.9583" y="349.5573">secret: str</text><ellipse cx="460.4167" cy="372.1354" fill="none" rx="3.125" ry="3.125" style="stroke:#2683B9;stroke-width:1.0416666666666667;"/><text fill="#343A40" font-family="IBM Plex Sans" font-size="11.4583" lengthAdjust="spacing" textLength="103.125" x="473.9583" y="374.8698">totp_timestamp: int</text><line style="stroke:#000000;stroke-width:2.0833333333333335;" x1="450" x2="632.2917" y1="387.3958" y2="387.3958"/></g><!--class Preferences--><g id="elem_Preferences"><rect codeLine="40" fill="#F5F5F5" height="105.7292" id="Preferences" rx="5.2083" ry="5.2083" style="stroke:#000000;stroke-width:2.0833333333333335;" width="184.375" x="17.7083" y="252.0313"/><ellipse cx="61.9792" cy="271.25" fill="none" rx="10.4167" ry="10.4167" style="stroke:#2683B9;stroke-width:1.0416666666666667;"/><path d="M63.8896,275.675 Q63.4623,275.8948 62.9924,276.0046 Q62.5224,276.1145 62.0036,276.1145 Q60.1603,276.1145 59.1899,274.8999 Q58.2194,273.6853 58.2194,271.3904 Q58.2194,269.0894 59.1899,267.8748 Q60.1603,266.6602 62.0036,266.6602 Q62.5224,266.6602 62.9985,266.77 Q63.4745,266.8799 63.8896,267.0996 L63.8896,269.1016 Q63.4257,268.6743 62.9893,268.476 Q62.5529,268.2776 62.089,268.2776 Q61.1003,268.2776 60.5967,269.0619 Q60.0932,269.8462 60.0932,271.3904 Q60.0932,272.9285 60.5967,273.7128 Q61.1003,274.4971 62.089,274.4971 Q62.5529,274.4971 62.9893,274.2987 Q63.4257,274.1003 63.8896,273.6731 Z " fill="#2FA4E7"/><text fill="#343A40" font-family="IBM Plex Sans" font-size="13.5417" font-weight="bold" lengthAdjust="spacing" textLength="77.0833" x="86.9792" y="276.3281">Preferences</text><line style="stroke:#000000;stroke-width:2.0833333333333335;" x1="18.75" x2="201.0417" y1="290.4687" y2="290.4687"/><ellipse cx="29.1667" cy="308.8542" fill="none" rx="3.125" ry="3.125" style="stroke:#2683B9;stroke-width:1.0416666666666667;"/><text fill="#343A40" font-family="IBM Plex Sans" font-size="11.4583" lengthAdjust="spacing" textLength="147.9167" x="42.7083" y="311.5885">mac_address: str &#171;PK&#187; &#171;FK&#187;</text><ellipse cx="29.1667" cy="334.1667" fill="none" rx="3.125" ry="3.125" style="stroke:#2683B9;stroke-width:1.0416666666666667;"/><text fill="#343A40" font-family="IBM Plex Sans" font-size="11.4583" lengthAdjust="spacing" textLength="96.875" x="42.7083" y="336.901">preferences: JSON</text><line style="stroke:#000000;stroke-width:2.0833333333333335;" x1="18.75" x2="201.0417" y1="349.4271" y2="349.4271"/></g><g id="elem_GMN7"><path d="M238.5417,283.4375 L238.5417,300.7292 L202.5521,304.8958 L238.5417,309.0625 L238.5417,326.3542 A5.2083,5.2083 0 0 0 243.75,331.5625 L407.2917,331.5625 A5.2083,5.2083 0 0 0 412.5,326.3542 L412.5,288.6458 L402.0833,278.2292 L243.75,278.2292 A5.2083,5.2083 0 0 0 238.5417,283.4375 " fill="#F5FFFA" style="stroke:#2ECC71;stroke-width:1.0416666666666667;"/><path d="M402.0833,278.2292 L402.0833,286.0417 A2.6042,2.6042 0 0 0 404.6875,288.6458 L412.5,288.6458 L402.0833,278.2292 " fill="#F5FFFA" style="stroke:#2ECC71;stroke-width:1.0416666666666667;"/><text fill="#033C73" font-family="IBM Plex Sans" font-size="12.5" lengthAdjust="spacing" textLength="141.6667" x="250" y="301.4583">Stores JSON preferences</text><text fill="#033C73" font-family="IBM Plex Sans" font-size="12.5" lengthAdjust="spacing" textLength="106.25" x="250" y="317.7083">with default values</text></g><g id="elem_GMN10"><path d="M669.7917,283.4375 L669.7917,300.7292 L633.4167,304.8958 L669.7917,309.0625 L669.7917,326.3542 A5.2083,5.2083 0 0 0 675,331.5625 L859.375,331.5625 A5.2083,5.2083 0 0 0 864.5833,326.3542 L864.5833,288.6458 L854.1667,278.2292 L675,278.2292 A5.2083,5.2083 0 0 0 669.7917,283.4375 " fill="#F5FFFA" style="stroke:#2ECC71;stroke-width:1.0416666666666667;"/><path d="M854.1667,278.2292 L854.1667,286.0417 A2.6042,2.6042 0 0 0 856.7708,288.6458 L864.5833,288.6458 L854.1667,278.2292 " fill="#F5FFFA" style="stroke:#2ECC71;stroke-width:1.0416666666666667;"/><text fill="#033C73" font-family="IBM Plex Sans" font-size="12.5" lengthAdjust="spacing" textLength="162.5" x="681.25" y="301.4583">Stores encrypted credentials</text><text fill="#033C73" font-family="IBM Plex Sans" font-size="12.5" lengthAdjust="spacing" textLength="121.875" x="681.25" y="317.7083">and TOTP information</text></g><!--link Device to Authentication--><g id="link_Device_Authentication"><path codeLine="45" d="M373.1042,123.7292 C397.8021,150.2083 415.7406,169.4359 444.1469,199.8838 " fill="none" id="Device-to-Authentication" style="stroke:#000000;stroke-width:2.0833333333333335;"/><polygon fill="none" points="456.9375,213.5938,448.7169,195.6203,439.5769,204.1474,456.9375,213.5938" style="stroke:#000000;stroke-width:2.0833333333333335;"/><polygon fill="#343A40" points="433.3214,172.1093,429.9706,164.927,426.3889,168.2682,433.3214,172.1093" style="stroke:#343A40;stroke-width:1.0416666666666667;"/><text fill="#343A40" font-family="IBM Plex Sans" font-size="12.5" lengthAdjust="spacing" textLength="19.7917" x="445.0625" y="173.75">has</text><text fill="#343A40" font-family="IBM Plex Sans" font-size="12.5" lengthAdjust="spacing" textLength="7.2917" x="365.4512" y="149.8534">1</text><text fill="#343A40" font-family="IBM Plex Sans" font-size="12.5" lengthAdjust="spacing" textLength="7.2917" x="436.7308" y="196.9596">1</text></g><!--link Device to Preferences--><g id="link_Device_Preferences"><path codeLine="46" d="M276.3229,123.7292 C240.9792,161.9792 205.9221,199.9263 170.62,238.1346 " fill="none" id="Device-to-Preferences" style="stroke:#000000;stroke-width:2.0833333333333335;"/><polygon fill="none" points="157.8958,251.9063,175.2105,242.376,166.0294,233.8932,157.8958,251.9063" style="stroke:#000000;stroke-width:2.0833333333333335;"/><polygon fill="#343A40" points="244.0578,172.1229,250.9718,168.2486,247.3741,164.9246,244.0578,172.1229" style="stroke:#343A40;stroke-width:1.0416666666666667;"/><text fill="#343A40" font-family="IBM Plex Sans" font-size="12.5" lengthAdjust="spacing" textLength="19.7917" x="261.4688" y="173.75">has</text><text fill="#343A40" font-family="IBM Plex Sans" font-size="12.5" lengthAdjust="spacing" textLength="7.2917" x="256.8748" y="149.8534">1</text><text fill="#343A40" font-family="IBM Plex Sans" font-size="12.5" lengthAdjust="spacing" textLength="7.2917" x="150.6561" y="235.0573">1</text></g><!--SRC=[ZLHDRzim3BtxLt3fOOSXGDDX610K0Vg10ksmD9ZJSw7AT2r4bZoARfPz_FTHRf8gRbh4FjZMUtny8aL_u0fh18tKMbHkw5ksnc4M5iOrYbGD3qel7icthhZmrXCmAHS4GiS9grAkM99XHWUbiW6px2Fao71z_Xrc5dz1Bc6W0aX2ABrZeTN6hXAD0alLMhuISAh4r60dTf0mjLKX7C1pdl40cYBoopTv2V4YvZtl5UIe_1BlLpHF1TAQSjnT-odpokY5mn3Wf4-8ddBp6s7qUI_4Aulmu6sHe5FPypwBPQdwhDJX2MhzTHIxTXSGQY-8UouCX9WcYJsBgszjh0FJBOdYZ-W4j2U75AJv1CfQG2idpt58WjUM8mz6nrdMzHakySbeX3yPmATQwNjL52JQOp56S7ew-pQPHAWDObaQk5bldVdPec3_Da9dhHm-nqOhDjwzAoYFgxLk8w5BALK7nmNddSRjLq1DoDjFzjpSiwaniAgRCHWPaws16M69CZaQmy7PNqB6S9FVJgFQkYA3qG26mx-JxgMtkR6CP839NcfgOyFBugm0cSUAmPSfHLpaxCLYbnwQ7MHfkDeCBZmfsyegIhEZMbzpr-6Bh6ZHgc6K8q9OH8RyG0IMNmhCR-SpgQ6ScVevQYl-7m00]--></g></svg>