<?xml version="1.0" encoding="us-ascii" standalone="no"?><svg xmlns="http://www.w3.org/2000/svg" xmlns:xlink="http://www.w3.org/1999/xlink" contentStyleType="text/css" height="1499px" preserveAspectRatio="none" style="width:1741px;height:1499px;background:#FFFFFF;" version="1.1" viewBox="0 0 1741 1499" width="1741px" zoomAndPan="magnify"><defs/><g><rect fill="#FFFFFF" height="380.3477" style="stroke:#181818;stroke-width:1.0;" width="10" x="851" y="337.5938"/><rect fill="none" height="191.8633" style="stroke:#000000;stroke-width:1.5;" width="1319" x="20" y="918.4941"/><rect fill="none" height="323.1055" style="stroke:#000000;stroke-width:1.5;" width="1725" x="10" y="1124.3574"/><rect fill="none" height="148.5527" style="stroke:#000000;stroke-width:1.5;" width="1705" x="20" y="1291.9102"/><line style="stroke:#181818;stroke-width:0.5;stroke-dasharray:5.0,5.0;" x1="86" x2="86" y1="36.4883" y2="1464.4629"/><line style="stroke:#181818;stroke-width:0.5;stroke-dasharray:5.0,5.0;" x1="475" x2="475" y1="36.4883" y2="1464.4629"/><line style="stroke:#181818;stroke-width:0.5;stroke-dasharray:5.0,5.0;" x1="644" x2="644" y1="36.4883" y2="1464.4629"/><line style="stroke:#181818;stroke-width:0.5;stroke-dasharray:5.0,5.0;" x1="758" x2="758" y1="36.4883" y2="1464.4629"/><line style="stroke:#181818;stroke-width:0.5;stroke-dasharray:5.0,5.0;" x1="856" x2="856" y1="36.4883" y2="1464.4629"/><line style="stroke:#181818;stroke-width:0.5;stroke-dasharray:5.0,5.0;" x1="1155" x2="1155" y1="36.4883" y2="1464.4629"/><line style="stroke:#181818;stroke-width:0.5;stroke-dasharray:5.0,5.0;" x1="1268" x2="1268" y1="36.4883" y2="1464.4629"/><line style="stroke:#181818;stroke-width:0.5;stroke-dasharray:5.0,5.0;" x1="1414" x2="1414" y1="36.4883" y2="1464.4629"/><line style="stroke:#181818;stroke-width:0.5;stroke-dasharray:5.0,5.0;" x1="1564" x2="1564" y1="36.4883" y2="1464.4629"/><line style="stroke:#181818;stroke-width:0.5;stroke-dasharray:5.0,5.0;" x1="1676" x2="1676" y1="36.4883" y2="1464.4629"/><rect fill="#E2E2F0" height="30.4883" rx="2.5" ry="2.5" style="stroke:#181818;stroke-width:0.5;" width="112" x="30" y="5"/><text fill="#000000" font-family="sans-serif" font-size="14" lengthAdjust="spacing" textLength="98" x="37" y="25.5352">scan_devices()</text><rect fill="#E2E2F0" height="30.4883" rx="2.5" ry="2.5" style="stroke:#181818;stroke-width:0.5;" width="112" x="30" y="1463.4629"/><text fill="#000000" font-family="sans-serif" font-size="14" lengthAdjust="spacing" textLength="98" x="37" y="1483.998">scan_devices()</text><rect fill="#E2E2F0" height="30.4883" rx="2.5" ry="2.5" style="stroke:#181818;stroke-width:0.5;" width="180" x="385" y="5"/><text fill="#000000" font-family="sans-serif" font-size="14" lengthAdjust="spacing" textLength="166" x="392" y="25.5352">get_all_mac_addresses()</text><rect fill="#E2E2F0" height="30.4883" rx="2.5" ry="2.5" style="stroke:#181818;stroke-width:0.5;" width="180" x="385" y="1463.4629"/><text fill="#000000" font-family="sans-serif" font-size="14" lengthAdjust="spacing" textLength="166" x="392" y="1483.998">get_all_mac_addresses()</text><rect fill="#E2E2F0" height="30.4883" rx="2.5" ry="2.5" style="stroke:#181818;stroke-width:0.5;" width="139" x="575" y="5"/><text fill="#000000" font-family="sans-serif" font-size="14" lengthAdjust="spacing" textLength="125" x="582" y="25.5352">reload_encoding()</text><rect fill="#E2E2F0" height="30.4883" rx="2.5" ry="2.5" style="stroke:#181818;stroke-width:0.5;" width="139" x="575" y="1463.4629"/><text fill="#000000" font-family="sans-serif" font-size="14" lengthAdjust="spacing" textLength="125" x="582" y="1483.998">reload_encoding()</text><rect fill="#E2E2F0" height="30.4883" rx="2.5" ry="2.5" style="stroke:#181818;stroke-width:0.5;" width="69" x="724" y="5"/><text fill="#000000" font-family="sans-serif" font-size="14" lengthAdjust="spacing" textLength="55" x="731" y="25.5352">Scanner</text><rect fill="#E2E2F0" height="30.4883" rx="2.5" ry="2.5" style="stroke:#181818;stroke-width:0.5;" width="69" x="724" y="1463.4629"/><text fill="#000000" font-family="sans-serif" font-size="14" lengthAdjust="spacing" textLength="55" x="731" y="1483.998">Scanner</text><rect fill="#E2E2F0" height="30.4883" rx="2.5" ry="2.5" style="stroke:#181818;stroke-width:0.5;" width="106" x="803" y="5"/><text fill="#000000" font-family="sans-serif" font-size="14" lengthAdjust="spacing" textLength="92" x="810" y="25.5352">ScanDelegate</text><rect fill="#E2E2F0" height="30.4883" rx="2.5" ry="2.5" style="stroke:#181818;stroke-width:0.5;" width="106" x="803" y="1463.4629"/><text fill="#000000" font-family="sans-serif" font-size="14" lengthAdjust="spacing" textLength="92" x="810" y="1483.998">ScanDelegate</text><rect fill="#E2E2F0" height="30.4883" rx="2.5" ry="2.5" style="stroke:#181818;stroke-width:0.5;" width="84" x="1113" y="5"/><text fill="#000000" font-family="sans-serif" font-size="14" lengthAdjust="spacing" textLength="70" x="1120" y="25.5352">Peripheral</text><rect fill="#E2E2F0" height="30.4883" rx="2.5" ry="2.5" style="stroke:#181818;stroke-width:0.5;" width="84" x="1113" y="1463.4629"/><text fill="#000000" font-family="sans-serif" font-size="14" lengthAdjust="spacing" textLength="70" x="1120" y="1483.998">Peripheral</text><rect fill="#E2E2F0" height="30.4883" rx="2.5" ry="2.5" style="stroke:#181818;stroke-width:0.5;" width="122" x="1207" y="5"/><text fill="#000000" font-family="sans-serif" font-size="14" lengthAdjust="spacing" textLength="108" x="1214" y="25.5352">FaceRecognizer</text><rect fill="#E2E2F0" height="30.4883" rx="2.5" ry="2.5" style="stroke:#181818;stroke-width:0.5;" width="122" x="1207" y="1463.4629"/><text fill="#000000" font-family="sans-serif" font-size="14" lengthAdjust="spacing" textLength="108" x="1214" y="1483.998">FaceRecognizer</text><rect fill="#E2E2F0" height="30.4883" rx="2.5" ry="2.5" style="stroke:#181818;stroke-width:0.5;" width="151" x="1339" y="5"/><text fill="#000000" font-family="sans-serif" font-size="14" lengthAdjust="spacing" textLength="137" x="1346" y="25.5352">get_all_usernames()</text><rect fill="#E2E2F0" height="30.4883" rx="2.5" ry="2.5" style="stroke:#181818;stroke-width:0.5;" width="151" x="1339" y="1463.4629"/><text fill="#000000" font-family="sans-serif" font-size="14" lengthAdjust="spacing" textLength="137" x="1346" y="1483.998">get_all_usernames()</text><rect fill="#E2E2F0" height="30.4883" rx="2.5" ry="2.5" style="stroke:#181818;stroke-width:0.5;" width="128" x="1500" y="5"/><text fill="#000000" font-family="sans-serif" font-size="14" lengthAdjust="spacing" textLength="114" x="1507" y="25.5352">get_credentials()</text><rect fill="#E2E2F0" height="30.4883" rx="2.5" ry="2.5" style="stroke:#181818;stroke-width:0.5;" width="128" x="1500" y="1463.4629"/><text fill="#000000" font-family="sans-serif" font-size="14" lengthAdjust="spacing" textLength="114" x="1507" y="1483.998">get_credentials()</text><rect fill="#E2E2F0" height="30.4883" rx="2.5" ry="2.5" style="stroke:#181818;stroke-width:0.5;" width="77" x="1638" y="5"/><text fill="#000000" font-family="sans-serif" font-size="14" lengthAdjust="spacing" textLength="63" x="1645" y="25.5352">uart_rpi5</text><rect fill="#E2E2F0" height="30.4883" rx="2.5" ry="2.5" style="stroke:#181818;stroke-width:0.5;" width="77" x="1638" y="1463.4629"/><text fill="#000000" font-family="sans-serif" font-size="14" lengthAdjust="spacing" textLength="63" x="1645" y="1483.998">uart_rpi5</text><rect fill="#FFFFFF" height="380.3477" style="stroke:#181818;stroke-width:1.0;" width="10" x="851" y="337.5938"/><polygon fill="#181818" points="463,63.7988,473,67.7988,463,71.7988,467,67.7988" style="stroke:#181818;stroke-width:1.0;"/><line style="stroke:#181818;stroke-width:1.0;" x1="86" x2="469" y1="67.7988" y2="67.7988"/><text fill="#000000" font-family="sans-serif" font-size="13" lengthAdjust="spacing" textLength="153" x="93" y="63.0566">get_all_mac_addresses()</text><polygon fill="#181818" points="97,93.1094,87,97.1094,97,101.1094,93,97.1094" style="stroke:#181818;stroke-width:1.0;"/><line style="stroke:#181818;stroke-width:1.0;stroke-dasharray:2.0,2.0;" x1="91" x2="474" y1="97.1094" y2="97.1094"/><text fill="#000000" font-family="sans-serif" font-size="13" lengthAdjust="spacing" textLength="63" x="103" y="92.3672">addresses</text><polygon fill="#181818" points="632.5,122.4199,642.5,126.4199,632.5,130.4199,636.5,126.4199" style="stroke:#181818;stroke-width:1.0;"/><line style="stroke:#181818;stroke-width:1.0;" x1="86" x2="638.5" y1="126.4199" y2="126.4199"/><text fill="#000000" font-family="sans-serif" font-size="13" lengthAdjust="spacing" textLength="112" x="93" y="121.6777">reload_encoding()</text><polygon fill="#181818" points="97,151.7305,87,155.7305,97,159.7305,93,155.7305" style="stroke:#181818;stroke-width:1.0;"/><line style="stroke:#181818;stroke-width:1.0;stroke-dasharray:2.0,2.0;" x1="91" x2="643.5" y1="155.7305" y2="155.7305"/><text fill="#000000" font-family="sans-serif" font-size="13" lengthAdjust="spacing" textLength="27" x="103" y="150.9883">data</text><polygon fill="#181818" points="746.5,181.041,756.5,185.041,746.5,189.041,750.5,185.041" style="stroke:#181818;stroke-width:1.0;"/><line style="stroke:#181818;stroke-width:1.0;" x1="86" x2="752.5" y1="185.041" y2="185.041"/><text fill="#000000" font-family="sans-serif" font-size="13" lengthAdjust="spacing" textLength="86" x="93" y="180.2988">new Scanner()</text><polygon fill="#181818" points="97,210.3516,87,214.3516,97,218.3516,93,214.3516" style="stroke:#181818;stroke-width:1.0;"/><line style="stroke:#181818;stroke-width:1.0;" x1="91" x2="757.5" y1="214.3516" y2="214.3516"/><text fill="#000000" font-family="sans-serif" font-size="13" lengthAdjust="spacing" textLength="111" x="103" y="209.6094">(instance created)</text><polygon fill="#181818" points="746.5,239.6621,756.5,243.6621,746.5,247.6621,750.5,243.6621" style="stroke:#181818;stroke-width:1.0;"/><line style="stroke:#181818;stroke-width:1.0;" x1="86" x2="752.5" y1="243.6621" y2="243.6621"/><text fill="#000000" font-family="sans-serif" font-size="13" lengthAdjust="spacing" textLength="182" x="93" y="238.9199">withDelegate(ScanDelegate())</text><path d="M763,256.6621 L763,281.6621 L977,281.6621 L977,266.6621 L967,256.6621 L763,256.6621 " fill="#FEFFDD" style="stroke:#181818;stroke-width:0.5;"/><path d="M967,256.6621 L967,266.6621 L977,266.6621 L967,256.6621 " fill="#FEFFDD" style="stroke:#181818;stroke-width:0.5;"/><text fill="#000000" font-family="sans-serif" font-size="13" lengthAdjust="spacing" textLength="193" x="769" y="274.2305">Scanner now has ScanDelegate</text><polygon fill="#181818" points="746.5,304.2832,756.5,308.2832,746.5,312.2832,750.5,308.2832" style="stroke:#181818;stroke-width:1.0;"/><line style="stroke:#181818;stroke-width:1.0;" x1="86" x2="752.5" y1="308.2832" y2="308.2832"/><text fill="#000000" font-family="sans-serif" font-size="13" lengthAdjust="spacing" textLength="122" x="93" y="303.541">start(passive=True)</text><polygon fill="#181818" points="746.5,333.5938,756.5,337.5938,746.5,341.5938,750.5,337.5938" style="stroke:#181818;stroke-width:1.0;"/><line style="stroke:#181818;stroke-width:1.0;" x1="86" x2="752.5" y1="337.5938" y2="337.5938"/><text fill="#000000" font-family="sans-serif" font-size="13" lengthAdjust="spacing" textLength="124" x="93" y="332.8516">process(timeout=3)</text><path d="M650,350.5938 L650,390.5938 L963,390.5938 L963,360.5938 L953,350.5938 L650,350.5938 " fill="#FEFFDD" style="stroke:#181818;stroke-width:0.5;"/><path d="M953,350.5938 L953,360.5938 L963,360.5938 L953,350.5938 " fill="#FEFFDD" style="stroke:#181818;stroke-width:0.5;"/><text fill="#000000" font-family="sans-serif" font-size="13" lengthAdjust="spacing" textLength="173" x="656" y="368.1621">For each discovered device:</text><text fill="#000000" font-family="sans-serif" font-size="13" lengthAdjust="spacing" textLength="280" x="668" y="383.4727">&#8226; ScanDelegate.handleDiscovery() is invoked</text><polygon fill="#181818" points="97,413.5254,87,417.5254,97,421.5254,93,417.5254" style="stroke:#181818;stroke-width:1.0;"/><line style="stroke:#181818;stroke-width:1.0;" x1="91" x2="850" y1="417.5254" y2="417.5254"/><text fill="#000000" font-family="sans-serif" font-size="13" lengthAdjust="spacing" textLength="283" x="103" y="412.7832">Update global devices with timestamp &amp; RSSI</text><polygon fill="#181818" points="97,442.8359,87,446.8359,97,450.8359,93,446.8359" style="stroke:#181818;stroke-width:1.0;"/><line style="stroke:#181818;stroke-width:1.0;" x1="91" x2="850" y1="446.8359" y2="446.8359"/><text fill="#000000" font-family="sans-serif" font-size="13" lengthAdjust="spacing" textLength="269" x="103" y="442.0938">If device not in global 'devices', initialize it</text><polygon fill="#181818" points="97,472.1465,87,476.1465,97,480.1465,93,476.1465" style="stroke:#181818;stroke-width:1.0;"/><line style="stroke:#181818;stroke-width:1.0;" x1="91" x2="850" y1="476.1465" y2="476.1465"/><text fill="#000000" font-family="sans-serif" font-size="13" lengthAdjust="spacing" textLength="179" x="103" y="471.4043">Calculate distance from RSSI</text><polygon fill="#181818" points="1143,516.7676,1153,520.7676,1143,524.7676,1147,520.7676" style="stroke:#181818;stroke-width:1.0;"/><line style="stroke:#181818;stroke-width:1.0;" x1="861" x2="1149" y1="520.7676" y2="520.7676"/><text fill="#000000" font-family="sans-serif" font-size="13" lengthAdjust="spacing" textLength="187" x="868" y="500.7148">Connect to device (Peripheral)</text><text fill="#000000" font-family="sans-serif" font-size="13" lengthAdjust="spacing" textLength="169" x="868" y="516.0254">(using device MAC address</text><path d="M1048,533.7676 L1048,558.7676 L1261,558.7676 L1261,543.7676 L1251,533.7676 L1048,533.7676 " fill="#FEFFDD" style="stroke:#181818;stroke-width:0.5;"/><path d="M1251,533.7676 L1251,543.7676 L1261,543.7676 L1251,533.7676 " fill="#FEFFDD" style="stroke:#181818;stroke-width:0.5;"/><text fill="#000000" font-family="sans-serif" font-size="13" lengthAdjust="spacing" textLength="192" x="1054" y="551.3359">Within a with-statement block</text><polygon fill="#181818" points="872,581.3887,862,585.3887,872,589.3887,868,585.3887" style="stroke:#181818;stroke-width:1.0;"/><line style="stroke:#181818;stroke-width:1.0;" x1="866" x2="1154" y1="585.3887" y2="585.3887"/><text fill="#000000" font-family="sans-serif" font-size="13" lengthAdjust="spacing" textLength="209" x="878" y="580.6465">Provide service via SERVICE_UUID</text><polygon fill="#181818" points="1143,610.6992,1153,614.6992,1143,618.6992,1147,614.6992" style="stroke:#181818;stroke-width:1.0;"/><line style="stroke:#181818;stroke-width:1.0;" x1="861" x2="1149" y1="614.6992" y2="614.6992"/><text fill="#000000" font-family="sans-serif" font-size="13" lengthAdjust="spacing" textLength="270" x="868" y="609.957">getCharacteristics(CHARACTERISTIC_UUID)</text><polygon fill="#181818" points="872,640.0098,862,644.0098,872,648.0098,868,644.0098" style="stroke:#181818;stroke-width:1.0;"/><line style="stroke:#181818;stroke-width:1.0;" x1="866" x2="1154" y1="644.0098" y2="644.0098"/><text fill="#000000" font-family="sans-serif" font-size="13" lengthAdjust="spacing" textLength="130" x="878" y="639.2676">Return characteristic</text><polygon fill="#181818" points="1143,684.6309,1153,688.6309,1143,692.6309,1147,688.6309" style="stroke:#181818;stroke-width:1.0;"/><line style="stroke:#181818;stroke-width:1.0;" x1="861" x2="1149" y1="688.6309" y2="688.6309"/><text fill="#000000" font-family="sans-serif" font-size="13" lengthAdjust="spacing" textLength="148" x="868" y="668.5781">read() and decode value</text><text fill="#000000" font-family="sans-serif" font-size="13" lengthAdjust="spacing" textLength="132" x="868" y="683.8887">(update device value)</text><polygon fill="#181818" points="1143,713.9414,1153,717.9414,1143,721.9414,1147,717.9414" style="stroke:#181818;stroke-width:1.0;"/><line style="stroke:#181818;stroke-width:1.0;" x1="856" x2="1149" y1="717.9414" y2="717.9414"/><text fill="#000000" font-family="sans-serif" font-size="13" lengthAdjust="spacing" textLength="71" x="863" y="713.1992">Disconnect</text><line style="stroke:#181818;stroke-width:1.0;" x1="86" x2="128" y1="747.252" y2="747.252"/><line style="stroke:#181818;stroke-width:1.0;" x1="128" x2="128" y1="747.252" y2="760.252"/><line style="stroke:#181818;stroke-width:1.0;" x1="87" x2="128" y1="760.252" y2="760.252"/><polygon fill="#181818" points="97,756.252,87,760.252,97,764.252,93,760.252" style="stroke:#181818;stroke-width:1.0;"/><text fill="#000000" font-family="sans-serif" font-size="13" lengthAdjust="spacing" textLength="276" x="93" y="742.5098">Remove devices not seen in TIMEOUT_LIMIT</text><line style="stroke:#181818;stroke-width:1.0;" x1="86" x2="128" y1="789.5625" y2="789.5625"/><line style="stroke:#181818;stroke-width:1.0;" x1="128" x2="128" y1="789.5625" y2="802.5625"/><line style="stroke:#181818;stroke-width:1.0;" x1="87" x2="128" y1="802.5625" y2="802.5625"/><polygon fill="#181818" points="97,798.5625,87,802.5625,97,806.5625,93,802.5625" style="stroke:#181818;stroke-width:1.0;"/><text fill="#000000" font-family="sans-serif" font-size="13" lengthAdjust="spacing" textLength="304" x="93" y="784.8203">Filter devices with distance &lt;= DISTANCE_LIMIT</text><polygon fill="#181818" points="1402.5,827.873,1412.5,831.873,1402.5,835.873,1406.5,831.873" style="stroke:#181818;stroke-width:1.0;"/><line style="stroke:#181818;stroke-width:1.0;" x1="86" x2="1408.5" y1="831.873" y2="831.873"/><text fill="#000000" font-family="sans-serif" font-size="13" lengthAdjust="spacing" textLength="309" x="93" y="827.1309">get_all_usernames(within_range_mac_addresses)</text><polygon fill="#181818" points="97,857.1836,87,861.1836,97,865.1836,93,861.1836" style="stroke:#181818;stroke-width:1.0;"/><line style="stroke:#181818;stroke-width:1.0;stroke-dasharray:2.0,2.0;" x1="91" x2="1413.5" y1="861.1836" y2="861.1836"/><text fill="#000000" font-family="sans-serif" font-size="13" lengthAdjust="spacing" textLength="90" x="103" y="856.4414">all_usernames</text><line style="stroke:#181818;stroke-width:1.0;" x1="86" x2="128" y1="890.4941" y2="890.4941"/><line style="stroke:#181818;stroke-width:1.0;" x1="128" x2="128" y1="890.4941" y2="903.4941"/><line style="stroke:#181818;stroke-width:1.0;" x1="87" x2="128" y1="903.4941" y2="903.4941"/><polygon fill="#181818" points="97,899.4941,87,903.4941,97,907.4941,93,903.4941" style="stroke:#181818;stroke-width:1.0;"/><text fill="#000000" font-family="sans-serif" font-size="13" lengthAdjust="spacing" textLength="262" x="93" y="885.752">Build filtered_users (non-logged in users)</text><path d="M20,918.4941 L82,918.4941 L82,925.8047 L72,935.8047 L20,935.8047 L20,918.4941 " fill="#EEEEEE" style="stroke:#000000;stroke-width:1.5;"/><rect fill="none" height="191.8633" style="stroke:#000000;stroke-width:1.5;" width="1319" x="20" y="918.4941"/><text fill="#000000" font-family="sans-serif" font-size="13" font-weight="bold" lengthAdjust="spacing" textLength="17" x="35" y="932.0625">alt</text><text fill="#000000" font-family="sans-serif" font-size="11" font-weight="bold" lengthAdjust="spacing" textLength="159" x="97" y="931.1289">[No encoding data available]</text><line style="stroke:#181818;stroke-width:1.0;" x1="86" x2="128" y1="957.1152" y2="957.1152"/><line style="stroke:#181818;stroke-width:1.0;" x1="128" x2="128" y1="957.1152" y2="970.1152"/><line style="stroke:#181818;stroke-width:1.0;" x1="87" x2="128" y1="970.1152" y2="970.1152"/><polygon fill="#181818" points="97,966.1152,87,970.1152,97,974.1152,93,970.1152" style="stroke:#181818;stroke-width:1.0;"/><text fill="#000000" font-family="sans-serif" font-size="13" lengthAdjust="spacing" textLength="157" x="93" y="952.373">Log warning and sleep(1)</text><line style="stroke:#181818;stroke-width:1.0;stroke-dasharray:2.0,2.0;" x1="86" x2="128" y1="999.4258" y2="999.4258"/><line style="stroke:#181818;stroke-width:1.0;stroke-dasharray:2.0,2.0;" x1="128" x2="128" y1="999.4258" y2="1012.4258"/><line style="stroke:#181818;stroke-width:1.0;stroke-dasharray:2.0,2.0;" x1="87" x2="128" y1="1012.4258" y2="1012.4258"/><polygon fill="#181818" points="97,1008.4258,87,1012.4258,97,1016.4258,93,1012.4258" style="stroke:#181818;stroke-width:1.0;"/><text fill="#000000" font-family="sans-serif" font-size="13" lengthAdjust="spacing" textLength="89" x="93" y="994.6836">Continue loop</text><line style="stroke:#000000;stroke-width:1.0;stroke-dasharray:2.0,2.0;" x1="20" x2="1339" y1="1021.4258" y2="1021.4258"/><polygon fill="#181818" points="1256,1039.7363,1266,1043.7363,1256,1047.7363,1260,1043.7363" style="stroke:#181818;stroke-width:1.0;"/><line style="stroke:#181818;stroke-width:1.0;" x1="86" x2="1262" y1="1043.7363" y2="1043.7363"/><text fill="#000000" font-family="sans-serif" font-size="13" lengthAdjust="spacing" textLength="161" x="93" y="1038.9941">new FaceRecognizer(data)</text><polygon fill="#181818" points="1256,1069.0469,1266,1073.0469,1256,1077.0469,1260,1073.0469" style="stroke:#181818;stroke-width:1.0;"/><line style="stroke:#181818;stroke-width:1.0;" x1="86" x2="1262" y1="1073.0469" y2="1073.0469"/><text fill="#000000" font-family="sans-serif" font-size="13" lengthAdjust="spacing" textLength="160" x="93" y="1068.3047">main_loop(filtered_users)</text><polygon fill="#181818" points="97,1098.3574,87,1102.3574,97,1106.3574,93,1102.3574" style="stroke:#181818;stroke-width:1.0;"/><line style="stroke:#181818;stroke-width:1.0;stroke-dasharray:2.0,2.0;" x1="91" x2="1267" y1="1102.3574" y2="1102.3574"/><text fill="#000000" font-family="sans-serif" font-size="13" lengthAdjust="spacing" textLength="71" x="103" y="1097.6152">user_found</text><path d="M10,1124.3574 L72,1124.3574 L72,1131.668 L62,1141.668 L10,1141.668 L10,1124.3574 " fill="#EEEEEE" style="stroke:#000000;stroke-width:1.5;"/><rect fill="none" height="323.1055" style="stroke:#000000;stroke-width:1.5;" width="1725" x="10" y="1124.3574"/><text fill="#000000" font-family="sans-serif" font-size="13" font-weight="bold" lengthAdjust="spacing" textLength="17" x="25" y="1137.9258">alt</text><text fill="#000000" font-family="sans-serif" font-size="11" font-weight="bold" lengthAdjust="spacing" textLength="139" x="87" y="1136.9922">[user_found is not None]</text><line style="stroke:#181818;stroke-width:1.0;" x1="86" x2="128" y1="1162.9785" y2="1162.9785"/><line style="stroke:#181818;stroke-width:1.0;" x1="128" x2="128" y1="1162.9785" y2="1175.9785"/><line style="stroke:#181818;stroke-width:1.0;" x1="87" x2="128" y1="1175.9785" y2="1175.9785"/><polygon fill="#181818" points="97,1171.9785,87,1175.9785,97,1179.9785,93,1175.9785" style="stroke:#181818;stroke-width:1.0;"/><text fill="#000000" font-family="sans-serif" font-size="13" lengthAdjust="spacing" textLength="375" x="93" y="1158.2363">Lookup mac_address from all_usernames using user_found</text><line style="stroke:#181818;stroke-width:1.0;" x1="86" x2="128" y1="1205.2891" y2="1205.2891"/><line style="stroke:#181818;stroke-width:1.0;" x1="128" x2="128" y1="1205.2891" y2="1218.2891"/><line style="stroke:#181818;stroke-width:1.0;" x1="87" x2="128" y1="1218.2891" y2="1218.2891"/><polygon fill="#181818" points="97,1214.2891,87,1218.2891,97,1222.2891,93,1218.2891" style="stroke:#181818;stroke-width:1.0;"/><text fill="#000000" font-family="sans-serif" font-size="13" lengthAdjust="spacing" textLength="228" x="93" y="1200.5469">totp = devices[mac_address]['value']</text><polygon fill="#181818" points="1552,1243.5996,1562,1247.5996,1552,1251.5996,1556,1247.5996" style="stroke:#181818;stroke-width:1.0;"/><line style="stroke:#181818;stroke-width:1.0;" x1="86" x2="1558" y1="1247.5996" y2="1247.5996"/><text fill="#000000" font-family="sans-serif" font-size="13" lengthAdjust="spacing" textLength="220" x="93" y="1242.8574">get_credentials(mac_address, totp)</text><polygon fill="#181818" points="97,1272.9102,87,1276.9102,97,1280.9102,93,1276.9102" style="stroke:#181818;stroke-width:1.0;"/><line style="stroke:#181818;stroke-width:1.0;stroke-dasharray:2.0,2.0;" x1="91" x2="1563" y1="1276.9102" y2="1276.9102"/><text fill="#000000" font-family="sans-serif" font-size="13" lengthAdjust="spacing" textLength="137" x="103" y="1272.168">(username, password)</text><path d="M20,1291.9102 L82,1291.9102 L82,1299.2207 L72,1309.2207 L20,1309.2207 L20,1291.9102 " fill="#EEEEEE" style="stroke:#000000;stroke-width:1.5;"/><rect fill="none" height="148.5527" style="stroke:#000000;stroke-width:1.5;" width="1705" x="20" y="1291.9102"/><text fill="#000000" font-family="sans-serif" font-size="13" font-weight="bold" lengthAdjust="spacing" textLength="17" x="35" y="1305.4785">alt</text><text fill="#000000" font-family="sans-serif" font-size="11" font-weight="bold" lengthAdjust="spacing" textLength="122" x="97" y="1304.5449">[credentials are valid]</text><polygon fill="#181818" points="1664.5,1326.5313,1674.5,1330.5313,1664.5,1334.5313,1668.5,1330.5313" style="stroke:#181818;stroke-width:1.0;"/><line style="stroke:#181818;stroke-width:1.0;" x1="86" x2="1670.5" y1="1330.5313" y2="1330.5313"/><text fill="#000000" font-family="sans-serif" font-size="13" lengthAdjust="spacing" textLength="222" x="93" y="1325.7891">write_to_pico(username, password)</text><line style="stroke:#181818;stroke-width:1.0;" x1="86" x2="128" y1="1375.1523" y2="1375.1523"/><line style="stroke:#181818;stroke-width:1.0;" x1="128" x2="128" y1="1375.1523" y2="1388.1523"/><line style="stroke:#181818;stroke-width:1.0;" x1="87" x2="128" y1="1388.1523" y2="1388.1523"/><polygon fill="#181818" points="97,1384.1523,87,1388.1523,97,1392.1523,93,1388.1523" style="stroke:#181818;stroke-width:1.0;"/><text fill="#000000" font-family="sans-serif" font-size="13" lengthAdjust="spacing" textLength="275" x="93" y="1355.0996">Set devices[mac_address]['loggedIn'] = True</text><text fill="#000000" font-family="sans-serif" font-size="13" lengthAdjust="spacing" textLength="297" x="93" y="1370.4102">Set devices[mac_address]['name'] = user_found</text><line style="stroke:#000000;stroke-width:1.0;stroke-dasharray:2.0,2.0;" x1="20" x2="1725" y1="1397.1523" y2="1397.1523"/><line style="stroke:#181818;stroke-width:1.0;" x1="86" x2="128" y1="1419.4629" y2="1419.4629"/><line style="stroke:#181818;stroke-width:1.0;" x1="128" x2="128" y1="1419.4629" y2="1432.4629"/><line style="stroke:#181818;stroke-width:1.0;" x1="87" x2="128" y1="1432.4629" y2="1432.4629"/><polygon fill="#181818" points="97,1428.4629,87,1432.4629,97,1436.4629,93,1432.4629" style="stroke:#181818;stroke-width:1.0;"/><text fill="#000000" font-family="sans-serif" font-size="13" lengthAdjust="spacing" textLength="143" x="93" y="1414.7207">Log error and continue</text><!--SRC=[TLNRRkCs47tNLmpsePQ0f41HzCLe5d3bImLiKaEojm-RG62aiKo49WMIij5zwhVqq_eb7UfcAcuURC3acJapPmx7DTEM5xncqi8dKp2PbtZc1Pem-WJCGBOCQXzIeSsP4Fc95JahIut6ZDZ7HJm5QnIAbJdAGfLSLZqiNKrH6R5Ar1rTV7ktH84LizZN8-mKiaNDwoDg9bh0TdgxPWMcMAXAykyznphz_vOQWrgoqzZEPd-BApIMA2rdOaIzgxYX7xck-I_jxNwHxe8WMyBzPoVF73xG3mAwXNj2PSivZ1T3QBgQmusOGReQ8qfcsG3EY4RY1NfT2PZ5qED2Berbia2WJaZJClA2BjmU1x53N_amYWAfB8BcrT62EhJmFZz8TO6Z6uqNuTT2XDg6DJE6d_5XfnlqIMkjo6qcjFo4gh4FF_TKwaofi_ZE3NmEQwK1MN64afl2NM49dL7dpn80_ltxdmd_ZqScIu7B7lqNASmDS7bMRrW6hB3yJAZEJUvhq6TVb-wy4kgLYPx1jCA0Av1QETNm0wHPbapYaaCF9ZKiyGmPPdsAsHqTSkSRiY7mAMdCHD48nqlTTTCvQ7MQicm9fqZlme9L0rbuDN_qBCF6a366EsUetaYUefJcJ-g6AcHjM_T4QF54dePNeOgtODjLvKJVQdNc9GAzYpRZcJF8LkdN95xb-tsoz6iZNyT7fabPgiZGSp1X_FiYNSIxLPfakoHk8o8_VOgsqHAAIPYVannQqk1eajGJkPugOA91rsWtfhxJzZJo8zkvjs859KwdFLXlwGeuaIRZbDta3A9quzibZwi_zhlyI_AOxFoODHTKwjGPuzH-VO0bDRju8e6wo2vmixy-_EkMkRHpo3MJ5KxtGHHizjTbu0VvfVpMS572eIq8onPZ89HAtWjLLVH0g8_sC0e2Hj8yAHYMHxilW9qP5-nLO40l2Aw9lwWABanB1tJY6u5OXpz58spmhQ9DA1i4eLGTe31-edNQRQ7f0WuTSVGETc8aWyiHJflfSEjq97Id-K4riWoGFcrNrpFtmjqCdvIyxKYzDJLu8dSlRA8jTC_78vaciShMy32C_fkNxENRhFNWxCKBsVJRtl_By6BksdnTYvlhwW-7Skx0RSoBqcM7SRrwgO3frlYyg_9Aw_vnQ9LhRZ6tAgzveJxCEUqlG_j1SvsV4ZbxeVxT0d-M7uCTKGjy9-JeZrkpeTQqtvtLYjvINKGtv_y0]--></g></svg>